<?xml version="1.0" standalone="no"?>
<!DOCTYPE svg PUBLIC "-//W3C//DTD SVG 20010904//EN"
 "http://www.w3.org/TR/2001/REC-SVG-20010904/DTD/svg10.dtd">
<svg version="1.0" xmlns="http://www.w3.org/2000/svg"
 width="512.000000pt" height="512.000000pt" viewBox="0 0 512.000000 512.000000"
 preserveAspectRatio="xMidYMid meet">
<metadata>
Created by potrace 1.14, written by Peter Selinger 2001-2017
</metadata>
<g transform="translate(0.000000,512.000000) scale(0.100000,-0.100000)"
fill="#000000" stroke="none">
<path d="M0 2560 l0 -2560 2560 0 2560 0 0 2560 0 2560 -2560 0 -2560 0 0
-2560z m2837 1381 c671 -138 1153 -711 1155 -1376 2 -375 -129 -718 -374 -980
-335 -358 -837 -528 -1298 -440 -422 81 -792 339 -993 693 -321 560 -229 1262
223 1702 239 233 528 374 860 420 101 14 312 4 427 -19z"/>
<path d="M2446 3800 c-294 -37 -543 -154 -755 -355 -271 -259 -403 -577 -388
-940 22 -537 357 -981 873 -1155 133 -45 229 -60 389 -60 213 0 353 31 540
119 173 82 285 168 410 313 169 196 274 424 306 665 17 130 6 335 -25 458
-134 538 -617 930 -1181 958 -55 3 -131 2 -169 -3z m197 -230 c39 -44 38 -110
-2 -151 -24 -24 -38 -29 -76 -29 -38 0 -52 5 -76 29 -23 24 -29 38 -29 74 0
106 114 154 183 77z m-340 -151 c15 -11 32 -38 38 -60 20 -65 124 -119 230
-119 90 0 209 61 209 107 0 15 14 39 34 59 41 41 97 47 139 13 90 -70 28 -211
-85 -196 -33 4 -47 -1 -101 -36 -34 -23 -75 -61 -91 -85 -26 -36 -31 -55 -36
-125 l-5 -82 -72 -3 -73 -3 0 71 c0 84 -15 124 -65 175 -67 66 -119 93 -168
88 -38 -5 -48 -1 -79 26 -20 17 -38 44 -42 62 -7 38 14 91 45 113 33 22 91 20
122 -5z m-324 -175 c89 -74 11 -218 -100 -185 -86 26 -102 143 -27 195 35 25
91 20 127 -10z m1317 -8 c39 -39 44 -77 18 -127 -18 -36 -74 -63 -114 -54 -15
3 -40 20 -56 36 -23 24 -29 39 -29 75 0 39 5 50 33 75 47 43 102 41 148 -5z
m-991 -181 c23 -23 25 -31 25 -130 0 -98 -2 -108 -24 -130 -34 -34 -64 -37
-315 -33 l-223 3 -24 28 c-30 35 -30 59 0 94 l24 28 206 3 206 3 0 55 c0 45 4
59 25 79 13 14 36 25 50 25 14 0 37 -11 50 -25z m620 0 c21 -20 25 -34 25 -80
l0 -55 201 0 201 0 29 -29 c35 -35 37 -61 6 -96 -17 -20 -35 -28 -70 -32 l-47
-6 0 -198 0 -199 -70 0 -70 0 0 55 0 55 -130 0 c-71 0 -130 -2 -130 -5 0 -2
18 -30 40 -61 35 -50 40 -65 40 -111 l0 -53 201 0 201 0 29 -29 c35 -36 37
-64 4 -96 -24 -25 -25 -25 -230 -25 l-205 0 0 -199 c0 -185 -1 -200 -21 -225
-27 -34 -71 -35 -104 -1 l-25 24 0 313 0 313 -102 152 c-139 206 -130 206
-267 0 l-101 -153 0 -312 0 -313 -25 -24 c-30 -31 -77 -33 -105 -5 -19 19 -20
33 -20 225 l0 205 -205 0 c-205 0 -206 0 -230 25 -28 27 -30 42 -14 78 19 42
47 47 254 47 l195 0 0 51 c0 55 8 75 51 130 16 20 29 40 29 43 0 3 -110 6
-245 6 -227 0 -247 -1 -277 -20 -18 -11 -46 -20 -61 -20 -116 0 -154 156 -50
205 39 19 93 14 113 -10 10 -13 60 -15 311 -15 l299 0 45 69 c25 38 52 74 59
80 9 8 49 11 112 9 l98 -3 59 -78 58 -77 172 2 172 3 3 72 3 71 -141 4 c-141
3 -142 3 -166 31 -22 26 -24 37 -24 133 0 98 2 107 25 129 13 14 36 25 50 25
14 0 37 -11 50 -25z m628 -445 c41 -45 38 -101 -7 -146 -71 -71 -175 -26 -176
77 0 37 5 50 28 71 35 33 50 38 92 33 23 -3 45 -15 63 -35z m-913 -610 c-1
-292 1 -343 14 -362 27 -38 20 -103 -12 -140 -25 -27 -36 -31 -77 -31 -41 0
-52 4 -77 31 -21 25 -28 42 -28 75 0 24 7 52 15 63 12 16 14 76 15 362 l0 342
75 0 75 0 0 -340z m-680 -55 c32 -17 60 -61 60 -95 0 -54 -57 -110 -112 -110
-41 0 -86 36 -99 78 -15 52 -2 90 41 120 39 26 70 28 110 7z m1316 -4 c85 -52
60 -181 -38 -197 -113 -19 -172 137 -75 196 40 25 73 25 113 1z"/>
<path d="M2547 3529 c-24 -14 -22 -56 3 -64 25 -8 50 10 50 36 0 24 -30 40
-53 28z"/>
<path d="M2210 3350 c-9 -16 -8 -25 1 -36 26 -32 84 0 62 34 -16 26 -50 27
-63 2z"/>
<path d="M2861 3356 c-21 -25 -4 -58 27 -54 23 2 27 8 27 33 0 23 -5 31 -21
33 -11 2 -26 -4 -33 -12z"/>
<path d="M1884 3186 c-11 -28 1 -51 28 -54 31 -4 48 29 28 53 -16 19 -49 19
-56 1z"/>
<path d="M3189 3184 c-9 -11 -10 -20 -2 -32 25 -41 86 -14 63 27 -13 25 -42
27 -61 5z"/>
<path d="M1650 2565 c-26 -31 13 -82 44 -56 22 18 20 48 -3 61 -25 13 -26 13
-41 -5z"/>
<path d="M3452 2568 c-19 -19 -14 -56 8 -63 43 -14 69 44 31 65 -24 13 -24 13
-39 -2z"/>
<path d="M2534 1596 c-10 -26 1 -51 22 -54 27 -4 47 21 39 48 -7 24 -53 28
-61 6z"/>
<path d="M1886 1874 c-9 -8 -16 -19 -16 -23 0 -9 33 -41 43 -41 9 0 37 30 37
40 0 5 -7 16 -16 24 -8 9 -19 16 -24 16 -5 0 -16 -7 -24 -16z"/>
<path d="M3202 1878 c-29 -29 -4 -76 32 -62 22 9 26 30 10 53 -17 24 -25 26
-42 9z"/>
</g>
</svg>
